<svg xmlns="http://www.w3.org/2000/svg" viewBox="0 0 75.02 74.66">
    <defs>
        <style>.cls-1, .cls-2, .cls-5 {
            fill: none;
            }

            .cls-1, .cls-4, .cls-5 {
            stroke: #fff;
            }

            .cls-1 {
            stroke-width: 1.56px;
            }

            .cls-2 {
            stroke: #ededed;
            }

            .cls-2, .cls-4, .cls-5 {
            stroke-miterlimit: 10;
            stroke-width: 0.78px;
            }

            .cls-3, .cls-4 {
            fill: #fff;
            }
        </style>
    </defs>
    <g>
        <g>
            <ellipse class="cls-1" cx="37.51" cy="37.33" rx="36.54" ry="36.73"
                     transform="translate(-4.53 69.47) rotate(-82.26)"/>
            <path class="cls-2" d="M12.45,32.86"/>
            <path class="cls-2" d="M14,31.3"/>
            <path class="cls-2" d="M13.23,27.4"/>
            <path class="cls-2" d="M14.79,31.3"/>
            <path class="cls-3" d="M36.81,19.39c.85,5.36-1.16,10.14-4.5,10.69s-6.73-3.34-7.59-8.7,
                          1.16-10.14,4.5-10.69S36,14,36.81,19.39Z"/>
            <path class="cls-3" d="M52.08,23.11c-1.42,5.53-5.31,9.32-8.68,8.46s-5-6-3.53-11.57,5.31-9.32,
                              8.68-8.46S53.51,17.58,52.08,23.11Z"/>
            <path class="cls-3" d="M60.11,39.69c-1.93,4.36-5.81,6.94-8.66,5.75s-3.6-5.69-1.67-10,5.81-6.94,
                              8.66-5.75S62,35.33,60.11,39.69Z"/>
            <path class="cls-3" d="M25.27,31.28c2.46,4.49,2,9.35-1,10.87s-7.42-.88-9.88-5.37-2-9.35,
                              1-10.87S22.81,26.79,25.27,31.28Z"/>
            <path class="cls-4" d="M26.22,45.07c-4.73,6.18-5.84,13.23-2.46,15.75s9.95-.45,14.68-6.63S44.28,
                              41,40.9,38.43,31,38.89,26.22,45.07Z"/>
            <path class="cls-4" d="M49.12,46.94c3.22,6.57,2.89,13.35-.74,15.13-2.53,
                              1.24-6.24-1.2-7.24-1.87A14.07,14.07,0,0,1,36,53.39c-2.05-5.11-2.71-13.44.74-15.13C40.34,36.48,
                              45.89,40.36,49.12,46.94Z"/>
            <circle class="cls-5" cx="53.78" cy="57.75"/>
            <path class="cls-5" d="M25.7,53.13c7.58,3.27,15,
                              6.59,14.82,7-.11.27-3.16-.52-3.12-.78s.65-.18,3.12,0H37.4a35.76,35.76,0,0,0-6.49,
                              2.16c-.16.07-.49.23-.53.18-.14-.21,3.62-3,7-5.46h-.78l-6.24,4.68"/>
            <path class="cls-3" d="M45.27,60c-.95-.33-1.9-.72-2.85-1.11a1.06,
                              1.06,0,0,0-.93-.48l-.2,0c-.83-.33-1.66-.65-2.49-.91-1.07-1-3.12-2.09-4.36-1a1.73,
                              1.73,0,0,0-.5.72c-.95.14-1.88.32-2.74.46a.93.93,0,0,0-.81.7,7.2,7.2,0,0,0-1.93,1,1.35,
                              1.35,0,0,0-.41.47H26.58a1.17,1.17,0,0,0,0,2.34c1,0,2,0,3,0l.19,0a1.23,1.23,0,0,0,.33,0,1.15,
                              1.15,0,0,0,1.07-1.58,8.34,8.34,0,0,1,.91-.25,2.82,2.82,0,0,0,2.21,0,1.19,1.19,0,0,0,
                              .4-.23c1.51,0,3,.08,4.35.12l.08,0c1.82.69,3.65,1.34,5.49,2C46.07,62.73,46.68,60.48,45.27,60Z"/>
            <path class="cls-3" d="M40.32,37.64a1.17,1.17,0,0,0,0,2.34A1.17,1.17,0,0,0,40.32,37.64Z"/>
        </g>
    </g>
</svg>